Patient4_TMGait_0pt6_01_left_27_EMG.mot
version=1
nRows=40
nColumns=33
inDegrees=no
endheader
time	1LAddLong	2LGlutMax	3LGlutMed	4LIliopsoas	5LSemiMemb	6LBicFemLong	7LRecFem	8LVastMed	9LVastLat	10LGasMed	11LTibAnt	12lTibPost	13LPeroneusLong	14LSol	15LExtDigLong	16LFlexDigLong	17RAddLong	18RGlutMax	19RGlutMed	20RIliopsoas	21RSemiMemb	22RBicFemLong	23RRecFem	24RVastMed	25RVastLat	26RGasMed	27RTibAnt	28RTibPost	29RPeroneusLong	30RSol	31RExtDigLong	32RFlexDigLong
33.69	0.001526	0.069427	0.13992	0.001221	0.010834	-0.002594	0.053558	0.003967	-0.081024	-0.5545	0.015564	0.019226	-0.048676	0.070801	-0.036011	-0.013428	0.19516	-0.13901	0.21042	-0.087128	0.079651	0.19775	0.027771	-0.25513	-0.007782	-0.019226	0.79788	-0.001068	-0.17136	-0.002747	-0.003967	-0.002899
33.691	0.003967	0.064697	0.18601	0.014801	-0.002899	-0.048065	0.050507	0.003662	-0.071259	-0.45548	-0.002441	0.039825	-0.023956	0.050049	-0.03479	0.000458	0.001831	-0.21301	-0.19379	-0.12924	-0.47821	0.29724	-0.10468	-0.1149	0.1265	-0.011597	1.0432	0.000153	-0.22995	-0.02243	-0.005493	-0.000153
33.692	0.000763	0.11658	0.24567	0.022583	-0.00946	-0.069427	0.048828	0.01236	-0.061646	-0.19882	0.025482	0.037537	-0.036469	0.031433	-0.023346	-0.001373	-0.083008	-0.22492	-0.60059	-0.078888	-0.1384	0.015106	-0.16815	0.068512	0.093231	-0.006256	0.96024	0	-0.12711	-0.031738	-0.010681	-0.015106
33.693	0	0.086517	0.2327	0.019379	-0.024719	-0.045929	0.044708	0.006866	-0.06073	-0.10162	-0.000305	0.023651	-0.037231	0.080414	-0.013123	-0.015717	-0.16388	-0.29434	-0.51971	0.050659	-0.012207	-0.07019	-0.22369	0.1358	-0.028229	-0.008392	0.53451	0.011597	0.027313	-0.005035	-0.002289	-0.01709
33.694	0.003662	0.09552	0.20126	0.014801	-0.035248	-0.037231	0.037842	-0.001221	-0.045471	-0.068359	0.00473	0.009308	-0.040894	0.16251	-0.006409	-0.003204	-0.16159	-0.28091	-0.18997	0.12573	-0.21393	-0.14862	-0.3566	0.12222	-0.30212	0.004272	-0.65445	0.003052	0.19836	0.003815	-0.002441	-0.003967
33.695	0.009918	0.10269	0.23834	0.000305	-0.034637	-0.041504	0.041809	0.003815	-0.046082	-0.046844	0.011749	-0.004425	-0.039063	0.15793	-0.003052	-0.007019	-0.053253	-0.2301	-0.062866	0.059052	0.13916	-0.40832	-0.24567	0.082855	-0.65613	0.015411	-1.7661	0.005493	0.24063	-0.00412	0.00061	-0.009918
33.696	-0.026398	0.053711	0.27741	-0.01297	-0.041504	-0.044708	0.043182	0.006409	-0.042572	-0.041656	0.008545	-0.02121	-0.030823	0.14725	0.010529	-0.007629	0.069122	-0.2182	-0.063629	0.023651	0.033112	-0.62866	-0.14358	-0.097809	-0.76538	0.008545	-1.7328	-0.000305	0.08255	0.000916	-0.002136	-0.01297
33.697	-0.099182	0.00824	0.27435	0.005493	-0.033417	-0.037689	0.038605	-0.004578	-0.033569	-0.076752	0.004425	-0.001221	-0.042877	0.11063	0.010071	-0.01358	0.071869	-0.19257	0.10513	0.018921	-0.29144	-0.58182	-0.090485	0.16388	-0.39444	0.001984	-1.2799	0.013275	-0.021515	0.02121	0.004272	-0.008698
33.698	0.022736	0.033112	0.28809	0.00351	-0.006866	-0.064697	0.032501	-0.010071	-0.042267	-0.084229	0.00946	-0.010681	-0.019379	0.039063	0.007324	-0.00473	0.003967	-0.14389	-0.052185	0.054474	-0.52033	-0.29129	-0.059509	0.44006	-0.10346	-0.00412	-0.83267	0.006866	-0.076294	-0.080109	-0.000916	-0.010834
33.699	0.054016	0.062714	0.31586	0.01297	0.028381	-0.094604	0.044861	-0.002899	-0.044556	-0.054016	0.00473	-0.011444	-0.024261	0.037231	0.00946	-0.007019	-0.035095	-0.067139	-0.14267	0.041199	-0.51056	0.096893	-0.13107	0.63797	0.050964	-0.007019	-0.46432	0.00412	-0.22125	-0.077667	-0.003052	-0.003204
33.7	-0.000458	0.05722	0.3183	0.021973	0.026245	-0.079803	0.062561	0.006104	-0.039063	0.053864	0.006409	0.004578	-0.007629	0.021515	0.018616	0.000305	-0.10986	-0.021057	-0.095215	0.025787	0.025635	0.3891	-0.24292	0.62378	0.054932	-0.007477	-0.06134	0.003662	-0.22263	0.01236	-0.00351	-0.003357
33.701	0.005493	0.019684	0.31693	0.004272	0.011139	-0.076599	0.062408	-0.002899	-0.03479	0.036011	0.003967	0.000153	-0.010529	0.088043	0.006866	-0.005646	-0.16846	0.027618	-0.066376	0.093231	0.53589	0.35721	-0.21683	0.43884	0.027466	-0.002136	-0.042725	0.004578	-0.10681	0.039215	-0.008545	-0.003357
33.702	0.009155	0.016174	0.3212	-0.001373	0.01709	-0.086212	0.061035	-0.002594	-0.046692	0.027618	0.012054	-0.006714	-0.027771	0.10498	0.00885	0.00061	-0.036926	0.071106	0.093536	0.038757	0.48477	0.13397	-0.11993	0.034485	-0.072479	0.005646	-0.086975	0.005646	0.032501	0.016327	-0.001831	-0.007324
33.703	-0.006866	0.06958	0.35004	0.011444	0.015564	-0.053711	0.072174	0.004883	-0.057678	0.10925	0.011292	-0.005493	-0.021362	0.082855	0.010223	-0.005188	0.15396	0.10101	-0.32211	-0.091553	0.30029	-0.4248	0.096741	-0.44083	-0.24262	0.000458	0.0737	0.005035	0.13687	-0.033112	-0.00412	-0.000305
33.704	-0.008392	0.12161	0.35294	0.010223	0.001678	-0.078278	0.083923	-0.007019	-0.061951	0.090179	0.009155	-0.024567	-0.010529	0.055084	0.004425	-0.009003	0.2327	0.19073	-0.77301	-0.1976	0.19348	-0.66391	0.13138	-0.73517	-0.36285	-0.002136	0.4512	0.007019	-0.092621	-0.092316	-0.002899	-0.004425
33.705	-0.001373	0.073242	0.37567	0.004272	0.010681	-0.061035	0.098572	-0.00351	-0.058289	0.051117	0.002136	0.002136	-0.009918	0.04776	0.003662	-0.003815	0.20371	0.095062	-0.28732	-0.1973	0.078888	-0.50873	0.045319	-0.85602	-0.31326	-0.000763	0.43396	0.003967	-0.65643	-0.054779	-0.002136	-0.009155
33.706	0.005951	0.072327	0.39612	0.024567	-0.001373	-0.023956	0.088043	0.007019	-0.062866	0.071259	-0.000153	-0.010834	-0.005798	0.03067	0.014496	0.00412	0.10529	0.044861	0.026093	-0.1265	0.20477	-0.33432	-0.064087	-0.5542	-0.18341	0.000458	0.15106	0.00473	-0.95108	0.03006	-0.003357	-0.000458
33.707	0.008087	0.076141	0.4068	0.01358	-0.005188	0.010529	0.10101	-0.001678	-0.048218	0.14297	0.005951	0.001221	-0.009766	0.022583	0.009155	-0.001068	-0.04776	0.021515	0.007477	0.007629	0.007172	-0.17548	-0.070648	-0.37216	0.085602	0.007324	0.22476	0.006409	-0.30258	-0.00946	-0.001984	-0.005493
33.708	0.014343	0.080414	0.40665	-0.005035	-0.012817	0.026398	0.099182	0.000763	-0.058441	0.085297	-0.005798	-0.017242	-0.032349	0.026398	0.007782	-0.003662	-0.18951	-0.042725	-0.089874	0.16525	-0.32989	-0.003052	-0.05127	-0.17868	0.63004	0.00351	0.33295	0.010681	0.65796	0.015106	0.001373	-0.009155
33.709	0.010529	0.086975	0.38605	-0.008087	-0.010071	0.00946	0.1004	-0.001678	-0.06485	-0.29511	-0.001831	0.005341	-0.016785	0.018616	0.018616	-0.016327	-0.14648	0.043335	-0.76065	0.31128	0.009308	0.13504	-0.16296	0.168	1.1417	-0.015259	0.13229	0.005341	1.7915	0.16647	-0.003204	-0.011444
33.71	-0.000305	0.071716	0.40558	0.016327	-0.016174	0.002289	0.11322	-0.005798	-0.050049	-0.22217	0.001984	-0.020905	-0.025635	0.037231	0.0383	-0.002136	-0.045776	0.072784	-0.92133	0.20355	0.33951	0.14954	-0.17105	0.39215	1.2485	-0.00885	-0.009918	0.009308	0.76706	0.23377	-0.002899	-0.014343
33.711	-0.000458	0.094757	0.4126	0.014038	-0.014801	0.024719	0.10376	0.00473	-0.06485	-0.13123	-0.014191	-0.005035	-0.01297	0.036316	0.038605	0	-0.01236	0.024261	-0.83496	0.05661	0.27145	0.10895	-0.088501	0.47134	0.85052	-0.009155	0.19486	0.009155	0.16586	0.2034	-0.006866	-0.009003
33.712	0.007324	0.073547	0.40695	0.02594	-0.015259	0.004425	0.10696	0.01236	-0.065918	-0.084076	-0.038147	-0.005798	0.016479	-0.003815	0.007477	-0.011597	0.025024	-0.14786	0.60974	-0.003052	0.069885	0.14679	-0.1265	0.46783	0.43442	-0.012207	0.1442	0.009613	-0.27298	0.12253	-0.010681	-0.005646
33.713	0.008392	0.072632	0.41992	0.007019	-0.017853	-0.032196	0.12009	0.005798	-0.077362	-0.074615	-0.031891	-0.005341	-0.007782	-0.00061	-0.038605	-0.003204	-0.040894	-0.35294	0.79208	-0.002289	-0.04425	0.18417	-0.39871	0.28458	0.010529	-0.014038	-0.29831	0.005798	-0.31479	0.008545	-0.003052	-0.007629
33.714	0.001526	0.079346	0.42328	0.006714	-0.025787	0.015106	0.10803	0.005035	-0.073853	-0.053406	-0.052338	-0.002594	-0.023804	-0.025635	-0.054169	-0.007324	-0.011292	-0.39032	-0.035706	0.01358	-0.044556	0.1712	-0.4509	0.15503	-0.26245	-0.011749	-0.55542	0.007172	-0.15869	-0.066376	-0.002441	-0.012665
33.715	0.00061	0.11475	0.44434	0.018005	-0.028229	0.067139	0.11383	0.004425	-0.075684	-0.05249	-0.041351	0.00473	-0.014343	-0.034332	-0.043488	0.000916	-0.007477	-0.38071	0.21103	-0.037537	-0.10651	0.35767	-0.47348	0.31189	-0.38452	-0.005341	-0.56839	0.004883	-0.018768	-0.084686	-0.002441	-0.007935
33.716	0.000153	0.091553	0.45288	0.009003	-0.040131	0.090942	0.09903	0.008392	-0.071259	0.010071	0.066528	-0.003204	-0.001526	-0.076752	-0.035706	0.002136	0.011597	-0.32806	0.21683	-0.021515	-0.21912	0.56549	-0.28259	0.23727	-0.44998	-0.003357	-0.2948	0.005035	-0.024261	-0.1236	-0.004425	-0.007477
33.717	-0.010834	0.070038	0.45288	0.00351	-0.042419	0.092621	0.11566	0.006561	-0.06546	0.049133	0.11658	-0.00946	-0.003662	-0.059509	0.002747	-0.00946	0.041199	-0.24567	0.024414	-0.039215	-0.085297	0.38788	-0.014954	-0.063629	-0.45029	-0.005951	0.17868	0.003357	-0.040131	-0.1683	-0.009613	-0.004578
33.718	-0.009918	0.084381	0.46432	-0.007935	-0.032501	0.048981	0.11414	0.000305	-0.06012	0.10483	0.045319	-0.003052	0.005188	-0.002441	0.013733	-0.011749	0.059662	-0.16571	0.38269	-0.04425	-0.048218	0.10986	0.12222	-0.66391	-0.45685	0.001984	0.70465	0.002136	-0.017853	-0.20676	-0.001678	0.001221
33.719	-0.004578	0.11185	0.46478	0.011597	-0.03952	0.004425	0.097198	-0.013885	-0.063171	0.22736	0.017395	-0.000458	0.007172	-0.019226	0.011444	-0.014496	0.064697	-0.16937	0.14618	0.004883	-0.066376	-0.13245	0.19287	-1.0368	-0.3598	0.004272	0.84976	0.002289	-0.22324	-0.18234	-0.002441	-0.00061
33.72	0.008545	0.13809	0.46081	-0.003815	-0.039978	-0.017242	0.082397	0.005798	-0.061646	0.30762	0.029449	0.002136	-0.002594	-0.054779	0.013123	-0.007629	0.072479	-0.084991	0.098267	0.006561	-0.021667	-0.092468	0.22415	-0.92682	-0.13214	-0.007019	0.84686	-0.000763	-0.17075	-0.14786	-0.002289	-0.009308
33.721	-0.007629	0.16052	0.4454	0.010986	-0.041046	-0.06012	0.084229	0.006104	-0.051575	0.36423	0.036926	-0.000458	-0.010529	-0.015564	0.019684	-0.00824	0.072937	0.018921	-0.39185	0.043793	-0.15518	0.035706	0.12375	-0.65491	-0.006866	-0.003357	0.57281	0.001373	0.000305	-0.058746	-0.006561	-0.016632
33.722	0.002136	0.1059	0.47195	0.007629	-0.031586	-0.1181	0.066986	0.003357	-0.046997	0.3125	0.016174	0.00412	-0.00061	0.018158	0.019226	-0.016785	0.090179	-0.11047	-0.23315	-0.029755	-0.14023	0.13168	0.12558	-0.54855	0.051575	-0.006409	0.084076	-0.000153	0.065002	-0.089874	-0.001526	0.00473
33.723	-0.002594	0.10742	0.46661	0.003815	-0.030212	-0.1059	0.056915	0.005798	-0.035858	0.40634	0.024109	0.014191	0.009766	0.001526	-0.000916	-0.001831	0.12726	-0.12131	-0.27115	-0.033264	-0.12711	0.22247	0.095825	-0.4184	0.06424	0.001526	-0.29251	0.003662	0.0354	-0.053864	-0.001221	-0.00061
33.724	0.005951	0.086823	0.45242	-0.000458	-0.013733	-0.096893	0.072174	0	-0.0383	0.1236	0.016937	-0.001678	0.010834	0.037994	-0.009155	-0.00061	0.18173	-0.089111	-0.38544	-0.070801	-0.066376	0.44098	0.16922	-0.35416	0.072784	-0.002441	-0.35355	0.001831	0.016785	0.060425	-0.002594	-0.001221
33.725	0.021973	0.095978	0.46646	-0.001068	0.004883	-0.071716	0.06485	0.006714	-0.019379	-0.36438	-0.006866	0.002289	0.001984	0.054626	-0.021667	0.005188	0.14084	0.088654	0.14725	-0.080719	-0.15381	0.69229	0.1355	-0.52231	0.033264	0.00473	-0.72144	-0.000458	0.065002	0.12833	-0.000916	-0.002136
33.726	0.020752	0.091248	0.47195	-0.000458	0.011597	-0.052948	0.032806	-0.001373	-0.016174	-0.33157	-0.026855	0.009918	-0.00824	0.063629	-0.021515	-0.006104	0.09079	0.18951	0.099182	-0.005951	-0.19974	1.0152	0.10025	-0.54382	0.024109	-0.00946	-0.12268	0.000305	-0.018616	0.15381	-0.00061	-0.016327
33.727	0.018005	0.080566	0.47058	-0.009613	-0.011139	0.010376	0.019073	0.000305	-0.013733	-0.16052	-0.036316	0.011749	0.003815	0.080719	-0.013885	-0.016632	0.01297	0.14053	-0.1001	0.089417	0.04837	1.3644	0.2034	-0.3093	-0.037231	-0.015411	0.26108	-0.002136	0.11704	0.086212	-0.007019	-0.007935
33.728	0.009613	0.056763	0.47287	0.023041	-0.004425	-0.009308	0.014648	-0.00061	-0.015869	0.10361	-0.023956	0.011749	0.001831	0.046997	0.004883	0.006409	-0.007019	0.17792	0.19089	0.037689	0.31509	1.2593	0.29068	-0.19638	-0.14587	-0.018921	0.20523	-0.000153	0.062256	-0.061035	-0.001984	-0.009918
33.729	0.014801	0.074005	0.49072	0.00946	-0.0177	-0.029602	0.038147	0.001984	-0.007935	0.22675	0.002747	0.029907	-0.025787	0.10162	0.068207	-0.002747	0.056763	0.4982	0.55862	0.006714	0.14542	0.86975	0.36438	-0.003204	-0.32455	-0.01297	0.24551	0.001221	-0.19669	-0.10056	-0.002747	-0.009155
